<?xml version="1.0" encoding="UTF-8" standalone="no"?>
<!-- Created with Inkscape (http://www.inkscape.org/) -->
<svg xmlns:dc="http://purl.org/dc/elements/1.1/" xmlns:cc="http://creativecommons.org/ns#" xmlns:rdf="http://www.w3.org/1999/02/22-rdf-syntax-ns#" xmlns:svg="http://www.w3.org/2000/svg" xmlns="http://www.w3.org/2000/svg" xmlns:xlink="http://www.w3.org/1999/xlink" xmlns:sodipodi="http://sodipodi.sourceforge.net/DTD/sodipodi-0.dtd" xmlns:inkscape="http://www.inkscape.org/namespaces/inkscape" width="700.44592" height="520.29504" id="svg2" version="1.1" inkscape:version="0.48.3.1 r9886" sodipodi:docname="dopingdiag2.ps">
  <defs id="defs4">
    <linearGradient inkscape:collect="always" id="linearGradient5880">
      <stop style="stop-color:#80b3ff;stop-opacity:1;" offset="0" id="stop5882"/>
      <stop style="stop-color:#80b3ff;stop-opacity:0;" offset="1" id="stop5884"/>
    </linearGradient>
    <linearGradient inkscape:collect="always" id="linearGradient5866">
      <stop style="stop-color:#e9afdd;stop-opacity:1;" offset="0" id="stop5868"/>
      <stop style="stop-color:#e9afdd;stop-opacity:0;" offset="1" id="stop5870"/>
    </linearGradient>
    <linearGradient inkscape:collect="always" id="linearGradient5376">
      <stop style="stop-color:#e9afdd;stop-opacity:1;" offset="0" id="stop5378"/>
      <stop style="stop-color:#e9afdd;stop-opacity:0;" offset="1" id="stop5380"/>
    </linearGradient>
    <linearGradient inkscape:collect="always" id="linearGradient5368">
      <stop style="stop-color:#aaeeff;stop-opacity:1;" offset="0" id="stop5370"/>
      <stop style="stop-color:#aaeeff;stop-opacity:0;" offset="1" id="stop5372"/>
    </linearGradient>
    <linearGradient inkscape:collect="always" id="linearGradient5360">
      <stop style="stop-color:#e9afdd;stop-opacity:1;" offset="0" id="stop5362"/>
      <stop style="stop-color:#e9afdd;stop-opacity:0;" offset="1" id="stop5364"/>
    </linearGradient>
    <clipPath id="clipPath3136" clipPathUnits="userSpaceOnUse">
      <path id="path3138" d="m 1379,0 0,199 326,0 0,-199 -326,0 z" inkscape:connector-curvature="0"/>
    </clipPath>
    <clipPath id="clipPath3122" clipPathUnits="userSpaceOnUse">
      <path id="path3124" d="m 1684,0 0,199 145,0 0,-199 -145,0 z" inkscape:connector-curvature="0"/>
    </clipPath>
    <clipPath id="clipPath3110" clipPathUnits="userSpaceOnUse">
      <path id="path3112" d="m 15,487 0,3056 19,0 0,-3056 -19,0 z" inkscape:connector-curvature="0"/>
    </clipPath>
    <clipPath id="clipPath3064" clipPathUnits="userSpaceOnUse">
      <path id="path3066" d="m 3086,487 0,3056 19,0 0,-3056 -19,0 z" inkscape:connector-curvature="0"/>
    </clipPath>
    <clipPath id="clipPath3032" clipPathUnits="userSpaceOnUse">
      <path id="path3034" d="m 0,188 0,276 150,0 0,-276 -150,0 z" inkscape:connector-curvature="0"/>
    </clipPath>
    <clipPath id="clipPath3274" clipPathUnits="userSpaceOnUse">
      <path id="path3276" clip-rule="evenodd" d="m 0,0 1275.34,0 0,1148.12 L 0,1148.12 0,0 z" inkscape:connector-curvature="0"/>
    </clipPath>
    <linearGradient inkscape:collect="always" xlink:href="#linearGradient5360" id="linearGradient5366" x1="422" y1="327.91449" x2="540" y2="272.41449" gradientUnits="userSpaceOnUse"/>
    <linearGradient inkscape:collect="always" xlink:href="#linearGradient5368" id="linearGradient5374" x1="692.5" y1="405.91449" x2="575.5" y2="333.41449" gradientUnits="userSpaceOnUse"/>
    <linearGradient inkscape:collect="always" xlink:href="#linearGradient5376" id="linearGradient5382" x1="216" y1="362.41449" x2="184.86397" y2="352.36423" gradientUnits="userSpaceOnUse"/>
    <linearGradient inkscape:collect="always" xlink:href="#linearGradient5866" id="linearGradient5872" x1="397.39401" y1="315.94119" x2="529.62299" y2="260.07974" gradientUnits="userSpaceOnUse"/>
    <linearGradient inkscape:collect="always" xlink:href="#linearGradient5880" id="linearGradient5886" x1="683.77228" y1="371.80261" x2="593.26257" y2="330.08331" gradientUnits="userSpaceOnUse"/>
  </defs>
  <sodipodi:namedview id="base" pagecolor="#ffffff" bordercolor="#666666" borderopacity="1.0" inkscape:pageopacity="0.0" inkscape:pageshadow="2" inkscape:zoom="1.4142136" inkscape:cx="375.1248" inkscape:cy="326.44767" inkscape:document-units="px" inkscape:current-layer="layer1" showgrid="false" fit-margin-top="1" fit-margin-left="1" fit-margin-right="1" fit-margin-bottom="1" inkscape:window-width="1680" inkscape:window-height="1022" inkscape:window-x="0" inkscape:window-y="0" inkscape:window-maximized="1" showguides="true" inkscape:guide-bbox="true"/>
  <metadata id="metadata7">
    <rdf:RDF>
      <cc:Work rdf:about="">
        <dc:format>image/svg+xml</dc:format>
        <dc:type rdf:resource="http://purl.org/dc/dcmitype/StillImage"/>
        <dc:title/>
      </cc:Work>
    </rdf:RDF>
  </metadata>
  <g inkscape:label="Layer 1" inkscape:groupmode="layer" id="layer1" transform="translate(-27.206497,-44.989071)">
    <path style="fill:url(#linearGradient5886);fill-opacity:1;stroke-width:1;stroke-miterlimit:4;stroke-dasharray:none;stroke-dashoffset:0" d="m 669.55951,461.45699 c -0.0705,-0.30937 -0.35955,-1.63125 -0.6424,-2.9375 -7.14426,-32.99365 -22.29678,-63.01691 -43.27742,-85.75 -6.3659,-6.89762 -14.32552,-14.09033 -21.08657,-19.05486 -1.65,-1.21157 -3.31067,-2.45425 -3.69037,-2.7615 l -0.69037,-0.55864 2.14408,-7.75 C 621.72839,272.47797 648.92201,216.1312 685.9123,169.42905 l 3.14082,-3.96544 0.0643,32.84044 c 0.0354,18.06224 0.0108,32.98107 -0.0546,33.15294 -0.085,0.22345 -0.89061,0.3125 -2.82679,0.3125 -2.87079,0 -3.30784,0.15409 -3.30784,1.16621 0,0.86487 0.72893,1.08379 3.60856,1.08379 l 2.64144,0 0,37.25 0,37.25 -5.825,0 c -6.11582,0 -6.425,0.0541 -6.425,1.125 0,1.07086 0.30918,1.125 6.425,1.125 l 5.825,0 0,37.25 0,37.25 -2.64144,0 c -1.45279,0 -2.85904,0.11646 -3.125,0.2588 -0.55209,0.29547 -0.64402,1.29681 -0.15622,1.70165 0.18004,0.14942 1.55816,0.30382 3.0625,0.34311 l 2.73516,0.0714 0.078,25.875 c 0.0429,14.23125 0.001,30.96563 -0.092,37.1875 l -0.17008,11.3125 -9.59069,0 -9.5907,0 -0.12813,-0.5625 0,0 z" id="path5860" inkscape:connector-curvature="0" transform="translate(27.206497,44.989071)"/>
    <g id="g3280" transform="matrix(0.55566625,0,0,-0.4630525,19.283583,575.4376)"/>
    <g id="g3284" transform="matrix(0.55566625,0,0,-0.4630525,19.283583,575.4376)"/>
    <g id="g3298" transform="matrix(0.55566625,0,0,-0.4630525,19.283583,575.4376)"/>
    <g id="g3312" transform="matrix(0.55566625,0,0,-0.4630525,19.283583,575.4376)"/>
    <g id="g3326" transform="matrix(0.55566625,0,0,-0.4630525,19.283583,575.4376)"/>
    <g id="g3340" transform="matrix(0.55566625,0,0,-0.4630525,19.283583,575.4376)"/>
    <g id="g3354" transform="matrix(0.55566625,0,0,-0.4630525,19.283583,575.4376)"/>
    <g id="g3368" transform="matrix(0.55566625,0,0,-0.4630525,19.283583,575.4376)"/>
    <g id="g3382" transform="matrix(0.55566625,0,0,-0.4630525,19.283583,575.4376)"/>
    <g id="g3396" transform="matrix(0.55566625,0,0,-0.4630525,19.283583,575.4376)"/>
    <g id="g3410" transform="matrix(0.55566625,0,0,-0.4630525,19.283583,575.4376)"/>
    <g id="g3424" transform="matrix(0.55566625,0,0,-0.4630525,19.283583,575.4376)"/>
    <g id="g3426" transform="matrix(0.30002199,0,0,0.30002051,19.283583,43.799338)">
      <path inkscape:connector-curvature="0" d="m 247.95,1548.02 0,-21.03" style="fill:none;stroke:#000000;stroke-width:8;stroke-linecap:round;stroke-linejoin:round;stroke-miterlimit:10;stroke-opacity:1;stroke-dasharray:none" id="path3428"/>
      <path inkscape:connector-curvature="0" d="m 436.98,1548.02 0,-41" style="fill:none;stroke:#000000;stroke-width:8;stroke-linecap:round;stroke-linejoin:round;stroke-miterlimit:10;stroke-opacity:1;stroke-dasharray:none" id="path3430"/>
      <path inkscape:connector-curvature="0" d="m 626,1548.02 0,-21.03" style="fill:none;stroke:#000000;stroke-width:8;stroke-linecap:round;stroke-linejoin:round;stroke-miterlimit:10;stroke-opacity:1;stroke-dasharray:none" id="path3432"/>
      <path inkscape:connector-curvature="0" d="m 815.03,1548.02 0,-41" style="fill:none;stroke:#000000;stroke-width:8;stroke-linecap:round;stroke-linejoin:round;stroke-miterlimit:10;stroke-opacity:1;stroke-dasharray:none" id="path3434"/>
      <path inkscape:connector-curvature="0" d="m 1003.94,1548.02 0,-21.03" style="fill:none;stroke:#000000;stroke-width:8;stroke-linecap:round;stroke-linejoin:round;stroke-miterlimit:10;stroke-opacity:1;stroke-dasharray:none" id="path3436"/>
      <path inkscape:connector-curvature="0" d="m 1192.97,1548.02 0,-41" style="fill:none;stroke:#000000;stroke-width:8;stroke-linecap:round;stroke-linejoin:round;stroke-miterlimit:10;stroke-opacity:1;stroke-dasharray:none" id="path3438"/>
      <path inkscape:connector-curvature="0" d="m 1382,1548.02 0,-21.03" style="fill:none;stroke:#000000;stroke-width:8;stroke-linecap:round;stroke-linejoin:round;stroke-miterlimit:10;stroke-opacity:1;stroke-dasharray:none" id="path3440"/>
      <path inkscape:connector-curvature="0" d="m 1571.03,1548.02 0,-41" style="fill:none;stroke:#000000;stroke-width:8;stroke-linecap:round;stroke-linejoin:round;stroke-miterlimit:10;stroke-opacity:1;stroke-dasharray:none" id="path3442"/>
      <path inkscape:connector-curvature="0" d="m 1759.94,1548.02 0,-21.03" style="fill:none;stroke:#000000;stroke-width:8;stroke-linecap:round;stroke-linejoin:round;stroke-miterlimit:10;stroke-opacity:1;stroke-dasharray:none" id="path3444"/>
      <path inkscape:connector-curvature="0" d="m 1948.97,1548.02 0,-41" style="fill:none;stroke:#000000;stroke-width:8;stroke-linecap:round;stroke-linejoin:round;stroke-miterlimit:10;stroke-opacity:1;stroke-dasharray:none" id="path3446"/>
      <path inkscape:connector-curvature="0" d="m 2138,1548.02 0,-21.03" style="fill:none;stroke:#000000;stroke-width:8;stroke-linecap:round;stroke-linejoin:round;stroke-miterlimit:10;stroke-opacity:1;stroke-dasharray:none" id="path3448"/>
      <path inkscape:connector-curvature="0" d="m 2327.03,1548.02 0,-41" style="fill:none;stroke:#000000;stroke-width:8;stroke-linecap:round;stroke-linejoin:round;stroke-miterlimit:10;stroke-opacity:1;stroke-dasharray:none" id="path3450"/>
      <path inkscape:connector-curvature="0" d="m 247.95,1548.02 2079.08,0" style="fill:none;stroke:#000000;stroke-width:8;stroke-linecap:round;stroke-linejoin:round;stroke-miterlimit:10;stroke-opacity:1;stroke-dasharray:none" id="path3452"/>
      <path inkscape:connector-curvature="0" d="m 247.95,1548.02 41.09,0" style="fill:none;stroke:#000000;stroke-width:8;stroke-linecap:round;stroke-linejoin:round;stroke-miterlimit:10;stroke-opacity:1;stroke-dasharray:none" id="path3454"/>
      <path inkscape:connector-curvature="0" d="m 247.95,1292.01 21.07,0" style="fill:none;stroke:#000000;stroke-width:8;stroke-linecap:round;stroke-linejoin:round;stroke-miterlimit:10;stroke-opacity:1;stroke-dasharray:none" id="path3456"/>
      <path inkscape:connector-curvature="0" d="m 247.95,1036 41.09,0" style="fill:none;stroke:#000000;stroke-width:8;stroke-linecap:round;stroke-linejoin:round;stroke-miterlimit:10;stroke-opacity:1;stroke-dasharray:none" id="path3458"/>
      <path inkscape:connector-curvature="0" d="m 247.95,779.98 21.07,0" style="fill:none;stroke:#000000;stroke-width:8;stroke-linecap:round;stroke-linejoin:round;stroke-miterlimit:10;stroke-opacity:1;stroke-dasharray:none" id="path3460"/>
      <path inkscape:connector-curvature="0" d="m 247.95,523.97 41.09,0" style="fill:none;stroke:#000000;stroke-width:8;stroke-linecap:round;stroke-linejoin:round;stroke-miterlimit:10;stroke-opacity:1;stroke-dasharray:none" id="path3462"/>
      <path inkscape:connector-curvature="0" d="m 247.95,267.96 21.07,0" style="fill:none;stroke:#000000;stroke-width:8;stroke-linecap:round;stroke-linejoin:round;stroke-miterlimit:10;stroke-opacity:1;stroke-dasharray:none" id="path3464"/>
      <path inkscape:connector-curvature="0" d="m 247.95,12.04 41.09,0" style="fill:none;stroke:#000000;stroke-width:8;stroke-linecap:round;stroke-linejoin:round;stroke-miterlimit:10;stroke-opacity:1;stroke-dasharray:none" id="path3466"/>
      <path inkscape:connector-curvature="0" d="m 247.95,1548.02 0,-655.87404 0,-880.10596" style="fill:none;stroke:#000000;stroke-width:8;stroke-linecap:round;stroke-linejoin:round;stroke-miterlimit:10;stroke-opacity:1;stroke-dasharray:none" id="path3468" sodipodi:nodetypes="ccc"/>
      <path inkscape:connector-curvature="0" d="m 1192.97,1548.02 0,-1535.98" style="fill:none;stroke:#000000;stroke-width:8;stroke-linecap:round;stroke-linejoin:round;stroke-miterlimit:10;stroke-opacity:1;stroke-dasharray:none" id="path3470"/>
      <path inkscape:connector-curvature="0" d="m 247.95,12.04 0,20.94" style="fill:none;stroke:#000000;stroke-width:8;stroke-linecap:round;stroke-linejoin:round;stroke-miterlimit:10;stroke-opacity:1;stroke-dasharray:none" id="path3472"/>
      <path inkscape:connector-curvature="0" d="m 436.98,12.04 0,41" style="fill:none;stroke:#000000;stroke-width:8;stroke-linecap:round;stroke-linejoin:round;stroke-miterlimit:10;stroke-opacity:1;stroke-dasharray:none" id="path3474"/>
      <path inkscape:connector-curvature="0" d="m 626,12.04 0,20.94" style="fill:none;stroke:#000000;stroke-width:8;stroke-linecap:round;stroke-linejoin:round;stroke-miterlimit:10;stroke-opacity:1;stroke-dasharray:none" id="path3476"/>
      <path inkscape:connector-curvature="0" d="m 815.03,12.04 0,41" style="fill:none;stroke:#000000;stroke-width:8;stroke-linecap:round;stroke-linejoin:round;stroke-miterlimit:10;stroke-opacity:1;stroke-dasharray:none" id="path3478"/>
      <path inkscape:connector-curvature="0" d="m 1003.94,12.04 0,20.94" style="fill:none;stroke:#000000;stroke-width:8;stroke-linecap:round;stroke-linejoin:round;stroke-miterlimit:10;stroke-opacity:1;stroke-dasharray:none" id="path3480"/>
      <path inkscape:connector-curvature="0" d="m 1192.97,12.04 0,41" style="fill:none;stroke:#000000;stroke-width:8;stroke-linecap:round;stroke-linejoin:round;stroke-miterlimit:10;stroke-opacity:1;stroke-dasharray:none" id="path3482"/>
      <path inkscape:connector-curvature="0" d="m 1382,12.04 0,20.94" style="fill:none;stroke:#000000;stroke-width:8;stroke-linecap:round;stroke-linejoin:round;stroke-miterlimit:10;stroke-opacity:1;stroke-dasharray:none" id="path3484"/>
      <path inkscape:connector-curvature="0" d="m 1571.03,12.04 0,41" style="fill:none;stroke:#000000;stroke-width:8;stroke-linecap:round;stroke-linejoin:round;stroke-miterlimit:10;stroke-opacity:1;stroke-dasharray:none" id="path3486"/>
      <path inkscape:connector-curvature="0" d="m 1759.94,12.04 0,20.94" style="fill:none;stroke:#000000;stroke-width:8;stroke-linecap:round;stroke-linejoin:round;stroke-miterlimit:10;stroke-opacity:1;stroke-dasharray:none" id="path3488"/>
      <path inkscape:connector-curvature="0" d="m 1948.97,12.04 0,41" style="fill:none;stroke:#000000;stroke-width:8;stroke-linecap:round;stroke-linejoin:round;stroke-miterlimit:10;stroke-opacity:1;stroke-dasharray:none" id="path3490"/>
      <path inkscape:connector-curvature="0" d="m 2138,12.04 0,20.94" style="fill:none;stroke:#000000;stroke-width:8;stroke-linecap:round;stroke-linejoin:round;stroke-miterlimit:10;stroke-opacity:1;stroke-dasharray:none" id="path3492"/>
      <path inkscape:connector-curvature="0" d="m 2327.03,12.04 0,41" style="fill:none;stroke:#000000;stroke-width:8;stroke-linecap:round;stroke-linejoin:round;stroke-miterlimit:10;stroke-opacity:1;stroke-dasharray:none" id="path3494"/>
      <path inkscape:connector-curvature="0" d="m 247.95,12.04 2079.08,0" style="fill:none;stroke:#000000;stroke-width:8;stroke-linecap:round;stroke-linejoin:round;stroke-miterlimit:10;stroke-opacity:1;stroke-dasharray:none" id="path3496"/>
      <path inkscape:connector-curvature="0" d="m 2327.03,1548.02 -40.98,0" style="fill:none;stroke:#000000;stroke-width:8;stroke-linecap:round;stroke-linejoin:round;stroke-miterlimit:10;stroke-opacity:1;stroke-dasharray:none" id="path3498"/>
      <path inkscape:connector-curvature="0" d="m 2327.03,1292.01 -21.07,0" style="fill:none;stroke:#000000;stroke-width:8;stroke-linecap:round;stroke-linejoin:round;stroke-miterlimit:10;stroke-opacity:1;stroke-dasharray:none" id="path3500"/>
      <path inkscape:connector-curvature="0" d="m 2327.03,1036 -40.98,0" style="fill:none;stroke:#000000;stroke-width:8;stroke-linecap:round;stroke-linejoin:round;stroke-miterlimit:10;stroke-opacity:1;stroke-dasharray:none" id="path3502"/>
      <path inkscape:connector-curvature="0" d="m 2327.03,779.98 -21.07,0" style="fill:none;stroke:#000000;stroke-width:8;stroke-linecap:round;stroke-linejoin:round;stroke-miterlimit:10;stroke-opacity:1;stroke-dasharray:none" id="path3504"/>
      <path inkscape:connector-curvature="0" d="m 2327.03,523.97 -40.98,0" style="fill:none;stroke:#000000;stroke-width:8;stroke-linecap:round;stroke-linejoin:round;stroke-miterlimit:10;stroke-opacity:1;stroke-dasharray:none" id="path3506"/>
      <path inkscape:connector-curvature="0" d="m 2327.03,267.96 -21.07,0" style="fill:none;stroke:#000000;stroke-width:8;stroke-linecap:round;stroke-linejoin:round;stroke-miterlimit:10;stroke-opacity:1;stroke-dasharray:none" id="path3508"/>
      <path inkscape:connector-curvature="0" d="m 2327.03,12.04 -40.98,0" style="fill:none;stroke:#000000;stroke-width:8;stroke-linecap:round;stroke-linejoin:round;stroke-miterlimit:10;stroke-opacity:1;stroke-dasharray:none" id="path3510"/>
      <path inkscape:connector-curvature="0" d="m 2327.03,1548.02 0,-1535.98" style="fill:none;stroke:#000000;stroke-width:8;stroke-linecap:round;stroke-linejoin:round;stroke-miterlimit:10;stroke-opacity:1;stroke-dasharray:none" id="path3512"/>
      <path inkscape:connector-curvature="0" d="m 1192.97,1548.02 0,-1535.98" style="fill:none;stroke:#000000;stroke-width:8;stroke-linecap:round;stroke-linejoin:round;stroke-miterlimit:10;stroke-opacity:1;stroke-dasharray:none" id="path3514"/>
    </g>
    <g id="g3534" transform="matrix(0.55566625,0,0,-0.4630525,19.283583,575.4376)"/>
    <g id="g3548" transform="matrix(0.55566625,0,0,-0.4630525,19.283583,575.4376)"/>
    <g id="g3550" transform="matrix(0.55566625,0,0,-0.4630525,19.283583,575.4376)"/>
    <text xml:space="preserve" style="font-size:22px;font-style:normal;font-variant:normal;font-weight:normal;font-stretch:normal;text-align:start;line-height:125%;letter-spacing:0px;word-spacing:0px;writing-mode:lr-tb;text-anchor:start;fill:#000000;fill-opacity:1;stroke:none;font-family:Sans;-inkscape-font-specification:Sans" x="74.640076" y="514.64081" id="text4377" sodipodi:linespacing="125%"><tspan sodipodi:role="line" id="tspan4379" x="74.640076" y="514.64081">0</tspan></text>
    <text xml:space="preserve" style="font-size:22px;font-style:normal;font-weight:normal;line-height:125%;letter-spacing:0px;word-spacing:0px;fill:#000000;fill-opacity:1;stroke:none;font-family:Sans" x="47.142857" y="309.98593" id="text4381" sodipodi:linespacing="125%" transform="translate(20.624453,43.797764)"><tspan sodipodi:role="line" id="tspan4383" x="47.142857" y="309.98593"/></text>
    <text xml:space="preserve" style="font-size:22px;font-style:normal;font-weight:normal;line-height:125%;letter-spacing:0px;word-spacing:0px;fill:#000000;fill-opacity:1;stroke:none;font-family:Sans" x="46.624454" y="361.21225" id="text4385" sodipodi:linespacing="125%"><tspan sodipodi:role="line" id="tspan4387" x="46.624454" y="361.21225">100</tspan></text>
    <text xml:space="preserve" style="font-size:22px;font-style:normal;font-weight:normal;line-height:125%;letter-spacing:0px;word-spacing:0px;fill:#000000;fill-opacity:1;stroke:none;font-family:Sans" x="46.624454" y="209.27408" id="text4389" sodipodi:linespacing="125%"><tspan sodipodi:role="line" id="tspan4391" x="46.624454" y="209.27408">200</tspan></text>
    <text xml:space="preserve" style="font-size:22px;font-style:normal;font-weight:normal;line-height:125%;letter-spacing:0px;word-spacing:0px;fill:#000000;fill-opacity:1;stroke:none;font-family:Sans" x="46.624454" y="62.317196" id="text4393" sodipodi:linespacing="125%"><tspan sodipodi:role="line" id="tspan4395" x="46.624454" y="62.317196">300</tspan></text>
    <text xml:space="preserve" style="font-size:22px;font-style:normal;font-weight:normal;line-height:125%;letter-spacing:0px;word-spacing:0px;fill:#000000;fill-opacity:1;stroke:none;font-family:Sans" x="126.00418" y="531.12903" id="text4397" sodipodi:linespacing="125%"><tspan sodipodi:role="line" id="tspan4399" x="126.00418" y="531.12903">-0.2</tspan></text>
    <text xml:space="preserve" style="font-size:22px;font-style:normal;font-weight:normal;line-height:125%;letter-spacing:0px;word-spacing:0px;fill:#000000;fill-opacity:1;stroke:none;font-family:Sans" x="237.9697" y="531.12903" id="text4401" sodipodi:linespacing="125%"><tspan sodipodi:role="line" id="tspan4403" x="237.9697" y="531.12903">-0.1</tspan></text>
    <text xml:space="preserve" style="font-size:22px;font-style:normal;font-weight:normal;line-height:125%;letter-spacing:0px;word-spacing:0px;fill:#000000;fill-opacity:1;stroke:none;font-family:Sans" x="371.00626" y="531.12903" id="text4405" sodipodi:linespacing="125%"><tspan sodipodi:role="line" id="tspan4407" x="371.00626" y="531.12903">0</tspan></text>
    <text xml:space="preserve" style="font-size:22px;font-style:normal;font-weight:normal;line-height:125%;letter-spacing:0px;word-spacing:0px;fill:#000000;fill-opacity:1;stroke:none;font-family:Sans" x="473.1936" y="531.12903" id="text4409" sodipodi:linespacing="125%"><tspan sodipodi:role="line" id="tspan4411" x="473.1936" y="531.12903">0.1</tspan></text>
    <text xml:space="preserve" style="font-size:22px;font-style:normal;font-weight:normal;line-height:125%;letter-spacing:0px;word-spacing:0px;fill:#000000;fill-opacity:1;stroke:none;font-family:Sans" x="587.64441" y="531.12903" id="text4413" sodipodi:linespacing="125%"><tspan sodipodi:role="line" id="tspan4415" x="587.64441" y="531.12903">0.2</tspan></text>
    <text xml:space="preserve" style="font-size:22px;font-style:normal;font-weight:normal;line-height:125%;letter-spacing:0px;word-spacing:0px;fill:#000000;fill-opacity:1;stroke:none;font-family:Sans" x="693.40533" y="531.12903" id="text4417" sodipodi:linespacing="125%"><tspan sodipodi:role="line" id="tspan4419" x="693.40533" y="531.12903">0.3</tspan></text>
    <text xml:space="preserve" style="font-size:22px;font-style:normal;font-weight:normal;line-height:125%;letter-spacing:0px;word-spacing:0px;fill:#000000;fill-opacity:1;stroke:none;font-family:Sans" x="338.86414" y="559.29193" id="text4421" sodipodi:linespacing="125%"><tspan sodipodi:role="line" id="tspan4423" x="338.86414" y="559.29193" style="font-size:24px">doping</tspan></text>
    <text xml:space="preserve" style="font-size:22px;font-style:normal;font-weight:normal;line-height:125%;letter-spacing:0px;word-spacing:0px;fill:#000000;fill-opacity:1;stroke:none;font-family:Sans" x="-320.42935" y="46.417435" id="text4425" sodipodi:linespacing="125%" transform="matrix(0,-1,1,0,0,0)"><tspan sodipodi:role="line" id="tspan4427" x="-320.42935" y="46.417435" style="font-size:24px"><tspan style="font-size:24px;font-style:italic;-inkscape-font-specification:Sans Italic" id="tspan4429">T</tspan> (K)</tspan></text>
    <text xml:space="preserve" style="font-size:22px;font-style:normal;font-weight:normal;line-height:125%;letter-spacing:0px;word-spacing:0px;fill:#000000;fill-opacity:1;stroke:none;font-family:Sans" x="149.32146" y="89.07634" id="text4450" sodipodi:linespacing="125%"><tspan sodipodi:role="line" id="tspan4452" x="149.32146" y="89.07634">electron doping</tspan></text>
    <text xml:space="preserve" style="font-size:22px;font-style:normal;font-weight:normal;line-height:125%;letter-spacing:0px;word-spacing:0px;fill:#000000;fill-opacity:1;stroke:none;font-family:Sans" x="482.59058" y="89.07634" id="text4454" sodipodi:linespacing="125%"><tspan sodipodi:role="line" id="tspan4456" x="482.59058" y="89.07634">hole doping</tspan></text>
    <path style="fill:#e9afdd;stroke:#000000;stroke-width:1;stroke-linecap:butt;stroke-linejoin:miter;stroke-miterlimit:4;stroke-opacity:1;stroke-dasharray:1,1;stroke-dashoffset:0;fill-opacity:1" d="M 377.35982,56.195876 C 395.7446,116.77136 431.78879,368.63072 430.39283,507.33" id="path4458" inkscape:connector-curvature="0" sodipodi:nodetypes="cc"/>
    <path style="fill:none;stroke:#000000;stroke-width:1;stroke-linecap:butt;stroke-linejoin:miter;stroke-miterlimit:4;stroke-opacity:1;stroke-dasharray:1,1;stroke-dashoffset:0" d="m 415.5,464.16449 c 6.73218,-58.93364 30.77627,-108.5733 81.25,-106.25 32.9095,-58.66675 154.54417,-18.76964 179.25,106.25" id="path4460" inkscape:connector-curvature="0" transform="translate(20.624453,43.797764)" sodipodi:nodetypes="ccc"/>
    <path style="fill:none;stroke:#000000;stroke-width:1;stroke-linecap:butt;stroke-linejoin:miter;stroke-miterlimit:4;stroke-opacity:1;stroke-dasharray:1, 1;stroke-dashoffset:0" d="m 237,464.16449 c -10.49994,-73.50024 -85.08333,-74.16667 -102.5,0.5" id="path4462" inkscape:connector-curvature="0" transform="translate(20.624453,43.797764)" sodipodi:nodetypes="cc"/>
    <path style="fill:none;stroke:#000000;stroke-width:1;stroke-linecap:butt;stroke-linejoin:miter;stroke-miterlimit:4;stroke-opacity:1;stroke-dasharray:1, 1;stroke-dashoffset:0" d="M 209.68292,464.16612 C 223.50847,297.26693 246.37171,124.78269 356.28978,24.611854" id="path4464" inkscape:connector-curvature="0" transform="translate(20.624453,43.797764)" sodipodi:nodetypes="cc"/>
    <path style="fill:none;stroke:#000000;stroke-width:1;stroke-linecap:butt;stroke-linejoin:miter;stroke-miterlimit:4;stroke-opacity:1;stroke-dasharray:1,4;stroke-dashoffset:0" d="M 534.68569,331.94125 C 482.80374,143.81673 436.07046,112.21343 356.13112,7.6709564" id="path4466" inkscape:connector-curvature="0" transform="translate(20.624453,43.797764)" sodipodi:nodetypes="cc"/>
    <path style="fill:none;stroke:#000000;stroke-width:1;stroke-linecap:butt;stroke-linejoin:miter;stroke-miterlimit:4;stroke-opacity:1;stroke-dasharray:1,4;stroke-dashoffset:0" d="M 606.27145,351.78413 C 627.97953,269.33136 658.52961,211.34721 696.625,164.69574" id="path4468" inkscape:connector-curvature="0" transform="translate(20.624453,43.797764)" sodipodi:nodetypes="cc"/>
    <path style="fill:none;stroke:#000000;stroke-width:1;stroke-linecap:butt;stroke-linejoin:miter;stroke-miterlimit:4;stroke-opacity:1;stroke-dasharray:1, 4;stroke-dashoffset:0" d="m 185.60388,408.40333 c 11.37707,-85.09639 27.17447,-137.77399 85.69418,-259.58609" id="path4472" inkscape:connector-curvature="0" transform="translate(20.624453,43.797764)" sodipodi:nodetypes="cc"/>
    <path style="fill:#ffb380;stroke-width:1;stroke-miterlimit:4;stroke-dasharray:1, 4;stroke-dashoffset:0" d="m 237.10047,462.1213 c -0.14058,-0.61875 -0.6096,-2.925 -1.04226,-5.125 -1.05145,-5.34638 -4.21382,-14.76053 -6.48677,-19.31063 -2.94942,-5.90429 -7.15758,-11.88424 -11.38708,-16.18146 l -3.92918,-3.9921 0.58401,-6.0079 C 219.71081,361.38818 227.2957,308.67878 235.13026,270.4963 257.34068,162.25169 295.48803,83.141239 350.94684,30.314478 l 4.39018,-4.181826 0,218.556828 0,218.55682 -27.25,0 -27.25,0 0,-3 c 0,-2.66666 -0.11111,-3 -1,-3 -0.88889,0 -1,0.33334 -1,3 l 0,3 -27.23413,0 -27.23414,0 -0.14087,-5.86896 c -0.12304,-5.12618 -0.2516,-5.89018 -1.01586,-6.03666 -0.79428,-0.15223 -0.875,0.38921 -0.875,5.86896 l 0,6.03666 -2.49048,0 c -2.17365,0 -2.52299,-0.14311 -2.74607,-1.125 l 0,0 z" id="path5338" inkscape:connector-curvature="0" transform="translate(20.624453,43.797764)"/>
    <path style="fill:#ffb380;stroke-width:1;stroke-miterlimit:4;stroke-dasharray:1, 4;stroke-dashoffset:0" d="m 357.64535,240.85958 c 0,-122.42083 0.0993,-222.484066 0.22059,-222.362743 0.62731,0.62731 5.64516,22.355246 8.47459,36.69608 22.67527,114.928403 42.78168,299.133333 42.8014,392.125003 l 0.003,16.125 -25.75,0 -25.75,0 0,-222.58334 z" id="path5346" inkscape:connector-curvature="0" transform="translate(20.624453,43.797764)"/>
    <path style="fill:#ffb380;stroke-width:1;stroke-miterlimit:4;stroke-dasharray:1, 4;stroke-dashoffset:0" d="m 210.3522,460.56792 c 0.16778,-1.58125 0.87385,-9.5125 1.56905,-17.625 0.69521,-8.1125 1.47818,-16.6625 1.73995,-19 0.26177,-2.3375 0.47779,-4.46796 0.48005,-4.73435 0.006,-0.71137 5.75088,5.04242 8.22157,8.23435 3.25272,4.20225 6.58917,10.21144 8.78643,15.825 2.04319,5.21992 4.9961,16.32411 4.9961,18.78745 l 0,1.38755 -13.0491,0 -13.04909,0 0.30504,-2.875 z" id="path5348" inkscape:connector-curvature="0" transform="translate(20.624453,43.797764)"/>
    <path style="fill:#99ff55;stroke-width:1;stroke-miterlimit:4;stroke-dasharray:1, 4;stroke-dashoffset:0" d="m 136.1457,460.06792 c 2.90403,-10.46406 8.2572,-21.83895 13.71044,-29.13314 8.13572,-10.88224 19.07132,-18.4086 30.16203,-20.75884 4.47751,-0.94883 12.31684,-0.92237 16.77847,0.0566 3.81662,0.83746 12.60328,4.84036 15.07637,6.86827 l 1.47766,1.21166 -1.63162,18.44021 c -0.89738,10.14211 -1.78733,20.24021 -1.97766,22.44021 l -0.34604,4 -10.875,0.13475 -10.875,0.13475 0,-2.69853 c 0,-3.09854 -1.03664,-4.62102 -1.96513,-2.88613 -0.29418,0.54968 -0.53487,2.02671 -0.53487,3.28229 l 0,2.28287 -24.96815,0 -24.96814,0 0.93664,-3.375 0,0 z" id="path5352" inkscape:connector-curvature="0" transform="translate(20.624453,43.797764)"/>
    <path style="fill:url(#linearGradient5382);fill-opacity:1;stroke-width:1;stroke-miterlimit:4;stroke-dasharray:1, 4;stroke-dashoffset:0" d="m 211.14535,415.63379 c -5.67419,-4.0857 -15.32187,-7.19087 -22.34183,-7.19087 -2.02633,0 -2.65817,-0.1778 -2.65817,-0.748 0,-3.48305 5.32185,-35.95172 8.49379,-51.82075 10.46473,-52.35434 28.53794,-103.45922 61.38169,-173.5665 5.95439,-12.71007 8.04332,-16.43349 5.62385,-10.02425 -17.20508,45.57672 -31.46789,108.74891 -40.95806,181.4095 -2.49069,19.06976 -7.04127,59.5035 -7.04127,62.56453 0,0.95139 -0.4783,0.83207 -2.5,-0.62366 l 0,0 z" id="path5356" inkscape:connector-curvature="0" transform="translate(20.624453,43.797764)"/>
    <text xml:space="preserve" style="font-size:22px;font-style:normal;font-weight:normal;line-height:125%;letter-spacing:0px;word-spacing:0px;fill:#000000;fill-opacity:1;stroke:none;font-family:Sans" x="193.62445" y="489.21225" id="text5390" sodipodi:linespacing="125%"><tspan sodipodi:role="line" id="tspan5392" x="193.62445" y="489.21225">sc</tspan></text>
    <text xml:space="preserve" style="font-size:22px;font-style:normal;font-weight:normal;line-height:125%;letter-spacing:0px;word-spacing:0px;fill:#000000;fill-opacity:1;stroke:none;font-family:Sans" x="-341.86447" y="376.92657" id="text5394" sodipodi:linespacing="125%" transform="matrix(0.21321823,-0.9770046,0.9770046,0.21321823,0,0)"><tspan sodipodi:role="line" id="tspan5396" x="-341.86447" y="376.92657">antiferromagnet</tspan></text>
    <text xml:space="preserve" style="font-size:22px;font-style:normal;font-weight:normal;line-height:125%;letter-spacing:0px;word-spacing:0px;fill:#000000;fill-opacity:1;stroke:none;font-family:Sans" x="312.53973" y="-373.00491" id="text5398" sodipodi:linespacing="125%" transform="matrix(0.05759797,0.99833986,-0.99833986,0.05759797,0,0)"><tspan sodipodi:role="line" id="tspan5400" x="312.53973" y="-373.00491">antiferromagnet</tspan></text>
    <text xml:space="preserve" style="font-size:22px;font-style:normal;font-weight:normal;line-height:125%;letter-spacing:0px;word-spacing:0px;fill:#000000;fill-opacity:1;stroke:none;font-family:Sans" x="-229.3485" y="747.21698" id="text5406" sodipodi:linespacing="125%" transform="matrix(0.25141632,-0.96787904,0.96787904,0.25141632,0,0)"><tspan sodipodi:role="line" id="tspan5408" x="-229.3485" y="747.21698">normal metal</tspan></text>
    <text xml:space="preserve" style="font-size:22px;font-style:normal;font-weight:normal;line-height:125%;letter-spacing:0px;word-spacing:0px;fill:#000000;fill-opacity:1;stroke:none;font-family:Sans" x="528.10974" y="230.99904" id="text5410" sodipodi:linespacing="125%"><tspan sodipodi:role="line" id="tspan5412" x="528.10974" y="230.99904">strange metal</tspan></text>
    <text xml:space="preserve" style="font-size:22px;font-style:normal;font-weight:normal;line-height:125%;letter-spacing:0px;word-spacing:0px;fill:#000000;fill-opacity:1;stroke:none;font-family:Sans" x="162.67448" y="453.06506" id="text5426-6" sodipodi:linespacing="125%"><tspan sodipodi:role="line" id="tspan5428-2" x="162.67448" y="453.06506"><tspan style="font-style:italic;-inkscape-font-specification:Sans Italic" id="tspan5432-1">T</tspan><tspan style="font-size:65.00091553%;baseline-shift:sub" id="tspan5430-1">c</tspan></tspan></text>
    <text xml:space="preserve" style="font-size:22px;font-style:normal;font-weight:normal;line-height:125%;letter-spacing:0px;word-spacing:0px;fill:#000000;fill-opacity:1;stroke:none;font-family:Sans" x="285.71106" y="144.64516" id="text5426-2" sodipodi:linespacing="125%"><tspan sodipodi:role="line" id="tspan5428-5" x="285.71106" y="144.64516"><tspan style="font-style:italic;-inkscape-font-specification:Sans Italic" id="tspan5432-9">T</tspan><tspan style="font-size:65.00091553%;baseline-shift:sub" id="tspan5480">N</tspan></tspan></text>
    <text xml:space="preserve" style="font-size:22px;font-style:normal;font-weight:normal;line-height:125%;letter-spacing:0px;word-spacing:0px;fill:#000000;fill-opacity:1;stroke:none;font-family:Sans" x="478.17792" y="171.82968" id="text5426-2-3" sodipodi:linespacing="125%"><tspan sodipodi:role="line" id="tspan5428-5-29" x="478.17792" y="171.82968"><tspan style="font-style:italic;-inkscape-font-specification:Sans Italic" id="tspan5432-9-3">T* </tspan><tspan style="font-size:65.00091553%;baseline-shift:super" id="tspan5524"/></tspan></text>
    <text xml:space="preserve" style="font-size:22px;font-style:normal;font-weight:normal;line-height:125%;letter-spacing:0px;word-spacing:0px;fill:#000000;fill-opacity:1;stroke:none;font-family:Sans" x="220.90425" y="297.1265" id="text5426-2-3-2" sodipodi:linespacing="125%"><tspan sodipodi:role="line" id="tspan5428-5-29-2" x="220.90425" y="297.1265"><tspan style="font-style:italic;-inkscape-font-specification:Sans Italic" id="tspan5432-9-3-6">T*</tspan><tspan style="font-size:65.00091553%;baseline-shift:super" id="tspan5524-5"/></tspan></text>
    <path style="fill:#99ff55;fill-opacity:1;stroke-width:1;stroke-miterlimit:4;stroke-dasharray:none;stroke-dashoffset:0" d="m 409.65829,460.7643 c 0.25353,-2.58849 1.52112,-10.96346 2.30875,-15.25391 4.58546,-24.97821 12.25317,-45.21124 22.77501,-60.09715 6.81539,-9.64217 15.42396,-17.35692 24.3987,-21.86541 8.61531,-4.32793 17.47561,-6.38186 27.42866,-6.35831 l 3.8938,0.009 0.48629,-0.86509 c 3.52018,-6.26225 9.23303,-12.36334 15.41525,-16.46288 7.45228,-4.94173 16.0347,-7.83834 26.42705,-8.91926 3.41986,-0.35571 12.29131,-0.25598 15.73313,0.17687 7.41205,0.93214 13.75524,2.37743 20.50609,4.6723 29.62405,10.07033 56.77522,32.92868 75.54356,63.59954 4.91565,8.03303 9.63712,17.42538 13.4077,26.67167 4.16905,10.22344 7.8707,22.30941 10.22796,33.39453 0.28757,1.35224 0.52284,2.48582 0.52284,2.51907 0,0.0333 -7.67653,0.0605 -17.05895,0.0605 l -17.05895,0 0,-2.80102 c 0,-2.48909 -0.036,-2.83362 -0.32327,-3.0936 -0.17781,-0.16091 -0.51589,-0.29134 -0.75131,-0.28985 -1.04252,0.007 -1.22352,0.5406 -1.22352,3.60959 l 0,2.57488 -27.12828,0 -27.12826,0 -0.0511,-5.72693 c -0.0477,-5.34322 -0.0737,-5.75184 -0.3879,-6.09879 -0.18522,-0.20453 -0.55075,-0.37187 -0.81229,-0.37187 -0.26155,0 -0.62708,0.16734 -0.81229,0.37187 -0.3142,0.34695 -0.34019,0.75557 -0.38791,6.09879 l -0.0511,5.72693 -27.11611,0 -27.11611,0 -0.0564,-2.82118 c -0.0515,-2.57778 -0.0869,-2.84421 -0.40991,-3.08797 -0.52694,-0.39762 -1.25928,-0.34442 -1.58096,0.11486 -0.21992,0.31397 -0.27519,0.93535 -0.27519,3.09359 l 0,2.7007 -27.22361,0 -27.22361,0 0,-5.74524 c 0,-5.50954 -0.0145,-5.75975 -0.35356,-6.09879 -0.41424,-0.41425 -1.02959,-0.45606 -1.51301,-0.10281 -0.32584,0.2381 -0.34572,0.54569 -0.3942,6.0988 l -0.0511,5.84804 -26.3557,0 -26.35571,0 0.12553,-1.28163 z" id="path5856" inkscape:connector-curvature="0" transform="translate(27.206497,44.989071)"/>
    <path style="fill:url(#linearGradient5872);fill-opacity:1;stroke-width:1;stroke-miterlimit:4;stroke-dasharray:none;stroke-dashoffset:0" d="m 403.84591,461.88784 c -0.0805,-0.25668 -0.23795,-7.86483 -0.34998,-16.90696 -0.4417,-35.65038 -2.55152,-74.56904 -6.59324,-121.62237 -9.41642,-109.62486 -29.1374,-245.662847 -44.03176,-303.736947 -1.14692,-4.471929 -1.56512,-6.750753 -1.48697,-8.102627 l 0.10873,-1.8808543 5.99354,7.7490733 c 6.06514,7.841651 21.98702,27.820935 36.60476,45.932839 34.82559,43.150136 51.73517,67.154786 68.86323,97.757516 4.4315,7.91775 14.75599,28.48628 18.81163,37.47666 15.31905,33.95869 30.03715,75.77456 43.30565,123.03658 1.28291,4.56967 2.3993,8.49789 2.48087,8.72936 0.0945,0.26818 -0.58223,0.56073 -1.86543,0.80641 -3.60997,0.69115 -10.06908,2.8683 -13.68101,4.61139 -8.46807,4.08663 -15.02802,9.7917 -20.21919,17.58425 l -1.9431,2.91682 -3.23994,0 c -4.0404,0 -11.17202,0.83236 -14.90286,1.73937 -21.52815,5.23376 -38.29276,21.82259 -49.69336,49.17232 -5.60009,13.4345 -9.85829,29.97538 -12.54194,48.71895 -0.95071,6.64008 -1.57809,8.12939 -1.5865,3.76605 -0.006,-3.08065 -0.26821,-3.82927 -1.27439,-3.63754 -0.57105,0.10883 -0.68965,0.54971 -0.84152,3.12839 -0.16389,2.78299 -0.23485,3.00994 -0.97385,3.11487 -0.43839,0.0623 -0.8629,-0.0968 -0.94337,-0.35355 z" id="path5864" inkscape:connector-curvature="0" transform="translate(27.206497,44.989071)"/>
    <text xml:space="preserve" style="font-size:22px;font-style:normal;font-weight:normal;line-height:125%;letter-spacing:0px;word-spacing:0px;fill:#000000;fill-opacity:1;stroke:none;font-family:Sans" x="475.08893" y="465.16351" id="text5386" sodipodi:linespacing="125%"><tspan sodipodi:role="line" id="tspan5388" x="475.08893" y="465.16351">superconductor</tspan></text>
    <text xml:space="preserve" style="font-size:22px;font-style:normal;font-weight:normal;line-height:125%;letter-spacing:0px;word-spacing:0px;fill:#000000;fill-opacity:1;stroke:none;font-family:Sans" x="351.37033" y="-363.02704" id="text5402" sodipodi:linespacing="125%" transform="matrix(0.27442071,0.96160973,-0.96160973,0.27442071,0,0)" inkscape:transform-center-y="-20.946253" inkscape:transform-center-x="-1.5013955"><tspan sodipodi:role="line" id="tspan5404" x="351.37033" y="-363.02704">pseudogap</tspan></text>
    <text xml:space="preserve" style="font-size:22px;font-style:normal;font-weight:normal;line-height:125%;letter-spacing:0px;word-spacing:0px;fill:#000000;fill-opacity:1;stroke:none;font-family:Sans" x="460.22665" y="401.30713" id="text5426" sodipodi:linespacing="125%"><tspan sodipodi:role="line" id="tspan5428" x="460.22665" y="401.30713"><tspan style="font-style:italic;-inkscape-font-specification:Sans Italic" id="tspan5432">T</tspan><tspan style="font-size:65.00091553%;baseline-shift:sub" id="tspan5430">c</tspan></tspan></text>
    <text xml:space="preserve" style="font-size:22px;font-style:normal;font-weight:normal;line-height:125%;letter-spacing:0px;word-spacing:0px;fill:#000000;fill-opacity:1;stroke:none;font-family:Sans" x="407.9317" y="193.80885" id="text5426-2-5" sodipodi:linespacing="125%"><tspan sodipodi:role="line" id="tspan5428-5-2" x="407.9317" y="193.80885"><tspan style="font-style:italic;-inkscape-font-specification:Sans Italic" id="tspan5432-9-9">T</tspan><tspan style="font-size:65.00091553%;baseline-shift:sub" id="tspan5480-0">N</tspan></tspan></text>
  </g>
</svg>